<svg width="32" height="32" viewBox="0 0 32 32" fill="none" xmlns="http://www.w3.org/2000/svg">
<rect width="32" height="32" rx="16" fill="#E93C30"/>
<path d="M13.375 17.875C13.8723 17.875 14.3492 17.6775 14.7008 17.3258C15.0525 16.9742 15.25 16.4973 15.25 16C15.25 14.965 14.875 14.5 14.5 13.75C13.696 12.1428 14.332 10.7095 16 9.25C16.375 11.125 17.5 12.925 19 14.125C20.5 15.325 21.25 16.75 21.25 18.25C21.25 18.9394 21.1142 19.6221 20.8504 20.2591C20.5865 20.896 20.1998 21.4748 19.7123 21.9623C19.2248 22.4498 18.646 22.8365 18.0091 23.1004C17.3721 23.3642 16.6894 23.5 16 23.5C15.3106 23.5 14.6279 23.3642 13.9909 23.1004C13.354 22.8365 12.7752 22.4498 12.2877 21.9623C11.8002 21.4748 11.4135 20.896 11.1496 20.2591C10.8858 19.6221 10.75 18.9394 10.75 18.25C10.75 17.3853 11.0748 16.5295 11.5 16C11.5 16.4973 11.6975 16.9742 12.0492 17.3258C12.4008 17.6775 12.8777 17.875 13.375 17.875Z" stroke="white" stroke-width="1.5" stroke-linecap="round" stroke-linejoin="round"/>
</svg>
